<svg width="230" height="50" viewBox="0 0 230 50" fill="none" xmlns="http://www.w3.org/2000/svg">
<path d="M226.192 18.3641C225.447 17.7585 224.701 17.316 223.956 17.0366C223.211 16.7338 222.489 16.5824 221.79 16.5824C220.905 16.5824 220.183 16.792 219.624 17.2112C219.065 17.6304 218.786 18.1777 218.786 18.8531C218.786 19.3189 218.926 19.7032 219.205 20.0059C219.485 20.3087 219.846 20.5765 220.288 20.8094C220.754 21.019 221.266 21.2053 221.825 21.3684C222.407 21.5314 222.978 21.7061 223.537 21.8924C225.773 22.6376 227.403 23.6391 228.428 24.8967C229.476 26.131 230 27.7496 230 29.7525C230 31.1033 229.767 32.326 229.301 33.4206C228.859 34.5152 228.195 35.4584 227.31 36.2502C226.448 37.0188 225.377 37.6127 224.096 38.0319C222.838 38.4744 221.406 38.6956 219.799 38.6956C216.469 38.6956 213.383 37.7058 210.542 35.7262L213.476 30.2067C214.501 31.1149 215.514 31.7903 216.515 32.2328C217.517 32.6753 218.506 32.8966 219.485 32.8966C220.602 32.8966 221.429 32.6404 221.965 32.128C222.524 31.6157 222.803 31.0334 222.803 30.3813C222.803 29.9854 222.733 29.6477 222.594 29.3683C222.454 29.0655 222.221 28.7977 221.895 28.5648C221.569 28.3086 221.138 28.0757 220.602 27.8661C220.09 27.6565 219.461 27.4236 218.716 27.1674C217.831 26.8879 216.958 26.5852 216.096 26.2591C215.258 25.9098 214.501 25.4556 213.825 24.8967C213.173 24.3378 212.638 23.6391 212.218 22.8007C211.822 21.939 211.624 20.856 211.624 19.5518C211.624 18.2476 211.834 17.0715 212.253 16.0235C212.696 14.9522 213.301 14.0439 214.07 13.2986C214.862 12.5301 215.817 11.9362 216.934 11.517C218.076 11.0978 219.345 10.8882 220.742 10.8882C222.046 10.8882 223.409 11.0745 224.83 11.4471C226.25 11.7965 227.613 12.3205 228.917 13.0192L226.192 18.3641Z" fill="#222222"/>
<path d="M201.57 17.4209V37.962H194.722V17.4209H187.034V11.6218H209.258V17.4209H201.57Z" fill="#222222"/>
<path d="M164.026 24.7919C164.026 25.8399 164.224 26.8064 164.62 27.6914C165.016 28.5764 165.551 29.345 166.227 29.9971C166.902 30.6492 167.682 31.1615 168.567 31.5342C169.475 31.8835 170.43 32.0582 171.432 32.0582C172.433 32.0582 173.376 31.8835 174.261 31.5342C175.17 31.1615 175.961 30.6492 176.637 29.9971C177.336 29.345 177.883 28.5764 178.279 27.6914C178.675 26.8064 178.873 25.8399 178.873 24.7919C178.873 23.7439 178.675 22.7774 178.279 21.8924C177.883 21.0074 177.336 20.2388 176.637 19.5867C175.961 18.9346 175.17 18.4339 174.261 18.0846C173.376 17.712 172.433 17.5256 171.432 17.5256C170.43 17.5256 169.475 17.712 168.567 18.0846C167.682 18.4339 166.902 18.9346 166.227 19.5867C165.551 20.2388 165.016 21.0074 164.62 21.8924C164.224 22.7774 164.026 23.7439 164.026 24.7919ZM156.864 24.7919C156.864 22.8356 157.225 21.019 157.947 19.3422C158.669 17.6421 159.671 16.1632 160.952 14.9056C162.232 13.648 163.758 12.6698 165.528 11.9711C167.321 11.2492 169.289 10.8882 171.432 10.8882C173.551 10.8882 175.507 11.2492 177.301 11.9711C179.094 12.6698 180.631 13.648 181.912 14.9056C183.216 16.1632 184.229 17.6421 184.951 19.3422C185.673 21.019 186.034 22.8356 186.034 24.7919C186.034 26.7482 185.673 28.5764 184.951 30.2765C184.229 31.9534 183.216 33.4206 181.912 34.6782C180.631 35.9358 179.094 36.9256 177.301 37.6476C175.507 38.3463 173.551 38.6956 171.432 38.6956C169.289 38.6956 167.321 38.3463 165.528 37.6476C163.758 36.9256 162.232 35.9358 160.952 34.6782C159.671 33.4206 158.669 31.9534 157.947 30.2765C157.225 28.5764 156.864 26.7482 156.864 24.7919Z" fill="#222222"/>
<path d="M127.491 37.962V11.6218H134.338L146.984 27.7264V11.6218H153.796V37.962H146.984L134.338 21.8575V37.962H127.491Z" fill="#222222"/>
<path d="M107.28 22.4863L115.629 11.6218H124.083L113.638 24.0933L125.061 37.962H116.188L107.28 26.5386V37.962H100.433V11.6218H107.28V22.4863Z" fill="#222222"/>
<path d="M95.3309 21.907V37.962H88.4839L88.4839 21.907H95.3309Z" fill="#222222"/>
<circle cx="91.8433" cy="15.0953" r="3.40581" fill="#222222"/>
<path d="M84.5985 17.4209H72.9686V21.8225H82.6628V27.6216H72.9686V37.962H66.1216V11.6218H84.5985V17.4209Z" fill="#222222"/>
<g style="mix-blend-mode:multiply">
<path fill-rule="evenodd" clip-rule="evenodd" d="M0.0180664 0C6.57467 0.0047317 12.8617 2.61137 17.4983 7.24793C22.139 11.8887 24.7462 18.183 24.7462 24.746C24.336 24.746 23.9269 24.7358 23.5191 24.7156C23.9269 24.7358 24.336 24.746 24.7462 24.746C31.3093 24.746 37.6035 22.1389 42.2443 17.4981C46.8851 12.8573 49.4922 6.56306 49.4922 7.1006e-06L0.0180664 0Z" fill="#D70C0C"/>
</g>
<g style="mix-blend-mode:multiply">
<path fill-rule="evenodd" clip-rule="evenodd" d="M0.0180664 49.4919C6.57451 49.4871 12.8614 46.8805 17.4978 42.244C22.1386 37.6032 24.7458 31.309 24.7458 24.7459C24.3356 24.7459 23.9264 24.7561 23.5187 24.7763C23.9265 24.7561 24.3356 24.7459 24.7458 24.7459C31.3088 24.7459 37.6031 27.3531 42.2439 31.9939C46.8846 36.6346 49.4918 42.9289 49.4918 49.4919L0.0180664 49.4919Z" fill="#FCCA1B"/>
</g>
<g style="mix-blend-mode:multiply">
<path fill-rule="evenodd" clip-rule="evenodd" d="M0 0C-7.82636e-08 6.56305 2.60716 12.8573 7.24794 17.4981C11.8887 22.1388 18.1829 24.746 24.746 24.746L24.746 24.746C24.746 21.4645 24.0942 18.2501 22.8623 15.2761C24.0942 18.2502 24.746 21.4645 24.746 24.746C24.746 31.3091 22.1389 37.6033 17.4981 42.2441C12.8573 46.8848 6.56305 49.492 6.51297e-06 49.492L0 0Z" fill="#06843D"/>
</g>
<path fill-rule="evenodd" clip-rule="evenodd" d="M0.0178427 2.56114e-09L0 0C-5.7376e-07 6.56305 2.60716 12.8573 7.24794 17.4981C11.8887 22.1388 18.1829 24.746 24.746 24.746C24.746 18.183 22.1388 11.8887 17.498 7.24793C12.8615 2.61137 6.57444 0.00473171 0.0178427 2.56114e-09Z" fill="#452FD0"/>
<path fill-rule="evenodd" clip-rule="evenodd" d="M0.0164682 49.4919L0 49.4919C-5.7376e-07 42.9289 2.60716 36.6347 7.24794 31.9939C11.8887 27.3531 18.1829 24.7459 24.746 24.7459C24.746 31.309 22.1388 37.6032 17.498 42.244C12.8611 46.8809 6.57356 49.4876 0.0164682 49.4919Z" fill="#67D355"/>
</svg>
