<svg width="240" height="81" viewBox="0 0 240 81" fill="none" xmlns="http://www.w3.org/2000/svg">
<path d="M71.2002 41.674C71.2002 42.486 71.0392 43.172 70.7172 43.732C70.3952 44.278 69.9682 44.719 69.4362 45.055C68.9042 45.391 68.2952 45.636 67.6092 45.79C66.9372 45.93 66.2442 46 65.5302 46H59.6082V31.132H65.5302C66.1042 31.132 66.6922 31.195 67.2942 31.321C67.8962 31.433 68.4422 31.636 68.9322 31.93C69.4222 32.21 69.8212 32.595 70.1292 33.085C70.4372 33.575 70.5912 34.198 70.5912 34.954C70.5912 35.78 70.3672 36.466 69.9192 37.012C69.4712 37.544 68.8832 37.929 68.1552 38.167V38.209C68.5752 38.279 68.9672 38.412 69.3312 38.608C69.7092 38.79 70.0312 39.028 70.2972 39.322C70.5772 39.616 70.7942 39.959 70.9482 40.351C71.1162 40.743 71.2002 41.184 71.2002 41.674ZM67.1262 35.437C67.1262 34.933 66.9302 34.569 66.5382 34.345C66.1602 34.107 65.5932 33.988 64.8372 33.988H63.0732V37.054H65.0052C65.6772 37.054 66.1952 36.921 66.5592 36.655C66.9372 36.375 67.1262 35.969 67.1262 35.437ZM67.6092 41.338C67.6092 40.722 67.3782 40.295 66.9162 40.057C66.4542 39.819 65.8382 39.7 65.0682 39.7H63.0732V43.102H65.0892C65.3692 43.102 65.6562 43.081 65.9502 43.039C66.2582 42.983 66.5312 42.892 66.7692 42.766C67.0212 42.64 67.2242 42.465 67.3782 42.241C67.5322 42.003 67.6092 41.702 67.6092 41.338ZM80.693 46V44.551H80.651C80.525 44.789 80.357 45.013 80.147 45.223C79.951 45.433 79.713 45.615 79.433 45.769C79.167 45.923 78.866 46.049 78.53 46.147C78.208 46.245 77.865 46.294 77.501 46.294C76.801 46.294 76.206 46.168 75.716 45.916C75.24 45.664 74.848 45.342 74.54 44.95C74.246 44.544 74.029 44.089 73.889 43.585C73.763 43.067 73.7 42.542 73.7 42.01V35.542H77.165V41.212C77.165 41.506 77.186 41.786 77.228 42.052C77.27 42.318 77.347 42.556 77.459 42.766C77.585 42.976 77.746 43.144 77.942 43.27C78.138 43.382 78.397 43.438 78.719 43.438C79.321 43.438 79.776 43.214 80.084 42.766C80.406 42.318 80.567 41.793 80.567 41.191V35.542H84.011V46H80.693ZM90.8625 32.203C90.8625 32.469 90.8065 32.721 90.6945 32.959C90.5965 33.183 90.4565 33.379 90.2745 33.547C90.1065 33.715 89.8965 33.848 89.6445 33.946C89.4065 34.044 89.1545 34.093 88.8885 34.093C88.3285 34.093 87.8595 33.911 87.4815 33.547C87.1035 33.169 86.9145 32.721 86.9145 32.203C86.9145 31.951 86.9635 31.713 87.0615 31.489C87.1595 31.251 87.2995 31.048 87.4815 30.88C87.6635 30.712 87.8735 30.579 88.1115 30.481C88.3495 30.369 88.6085 30.313 88.8885 30.313C89.1545 30.313 89.4065 30.362 89.6445 30.46C89.8965 30.558 90.1065 30.691 90.2745 30.859C90.4565 31.027 90.5965 31.23 90.6945 31.468C90.8065 31.692 90.8625 31.937 90.8625 32.203ZM87.1665 46V35.542H90.6105V46H87.1665ZM93.8003 46V30.124H97.2863V46H93.8003ZM108.35 46V44.635H108.308C107.972 45.167 107.489 45.58 106.859 45.874C106.243 46.154 105.585 46.294 104.885 46.294C104.101 46.294 103.401 46.14 102.785 45.832C102.169 45.524 101.644 45.118 101.21 44.614C100.79 44.096 100.468 43.501 100.244 42.829C100.02 42.157 99.9082 41.457 99.9082 40.729C99.9082 40.001 100.02 39.308 100.244 38.65C100.482 37.978 100.811 37.39 101.231 36.886C101.665 36.382 102.183 35.983 102.785 35.689C103.401 35.395 104.087 35.248 104.843 35.248C105.613 35.248 106.264 35.395 106.796 35.689C107.328 35.983 107.741 36.305 108.035 36.655H108.077V30.124H111.521V46H108.35ZM108.224 40.75C108.224 40.414 108.161 40.085 108.035 39.763C107.923 39.441 107.755 39.154 107.531 38.902C107.321 38.65 107.062 38.447 106.754 38.293C106.446 38.139 106.096 38.062 105.704 38.062C105.298 38.062 104.941 38.139 104.633 38.293C104.325 38.447 104.066 38.65 103.856 38.902C103.646 39.14 103.485 39.42 103.373 39.742C103.275 40.064 103.226 40.393 103.226 40.729C103.226 41.065 103.275 41.401 103.373 41.737C103.485 42.059 103.646 42.346 103.856 42.598C104.066 42.85 104.325 43.053 104.633 43.207C104.941 43.361 105.298 43.438 105.704 43.438C106.096 43.438 106.446 43.361 106.754 43.207C107.062 43.053 107.321 42.85 107.531 42.598C107.755 42.346 107.923 42.059 108.035 41.737C108.161 41.415 108.224 41.086 108.224 40.75ZM126.385 34.198V46H122.794V34.198H118.594V31.132H130.585V34.198H126.385ZM137.351 38.356C137.197 38.314 137.043 38.286 136.889 38.272C136.749 38.258 136.609 38.251 136.469 38.251C136.007 38.251 135.615 38.335 135.293 38.503C134.985 38.671 134.733 38.874 134.537 39.112C134.355 39.35 134.222 39.609 134.138 39.889C134.054 40.169 134.012 40.414 134.012 40.624V46H130.568V35.542H133.886V37.054H133.928C134.194 36.522 134.572 36.088 135.062 35.752C135.552 35.416 136.119 35.248 136.763 35.248C136.903 35.248 137.036 35.255 137.162 35.269C137.302 35.283 137.414 35.304 137.498 35.332L137.351 38.356ZM146.202 46V44.551H146.16C146.034 44.789 145.866 45.013 145.656 45.223C145.46 45.433 145.222 45.615 144.942 45.769C144.676 45.923 144.375 46.049 144.039 46.147C143.717 46.245 143.374 46.294 143.01 46.294C142.31 46.294 141.715 46.168 141.225 45.916C140.749 45.664 140.357 45.342 140.049 44.95C139.755 44.544 139.538 44.089 139.398 43.585C139.272 43.067 139.209 42.542 139.209 42.01V35.542H142.674V41.212C142.674 41.506 142.695 41.786 142.737 42.052C142.779 42.318 142.856 42.556 142.968 42.766C143.094 42.976 143.255 43.144 143.451 43.27C143.647 43.382 143.906 43.438 144.228 43.438C144.83 43.438 145.285 43.214 145.593 42.766C145.915 42.318 146.076 41.793 146.076 41.191V35.542H149.52V46H146.202ZM158.787 38.629C158.507 38.363 158.178 38.139 157.8 37.957C157.422 37.775 157.023 37.684 156.603 37.684C156.281 37.684 155.98 37.747 155.7 37.873C155.434 37.999 155.301 38.216 155.301 38.524C155.301 38.818 155.448 39.028 155.742 39.154C156.05 39.28 156.54 39.42 157.212 39.574C157.604 39.658 157.996 39.777 158.388 39.931C158.794 40.085 159.158 40.288 159.48 40.54C159.802 40.792 160.061 41.1 160.257 41.464C160.453 41.828 160.551 42.262 160.551 42.766C160.551 43.424 160.418 43.984 160.152 44.446C159.886 44.894 159.536 45.258 159.102 45.538C158.682 45.818 158.206 46.021 157.674 46.147C157.142 46.273 156.61 46.336 156.078 46.336C155.224 46.336 154.384 46.203 153.558 45.937C152.746 45.657 152.067 45.251 151.521 44.719L153.453 42.682C153.761 43.018 154.139 43.298 154.587 43.522C155.035 43.746 155.511 43.858 156.015 43.858C156.295 43.858 156.568 43.795 156.834 43.669C157.114 43.529 157.254 43.291 157.254 42.955C157.254 42.633 157.086 42.395 156.75 42.241C156.414 42.087 155.889 41.926 155.175 41.758C154.811 41.674 154.447 41.562 154.083 41.422C153.719 41.282 153.39 41.093 153.096 40.855C152.816 40.617 152.585 40.323 152.403 39.973C152.221 39.623 152.13 39.203 152.13 38.713C152.13 38.083 152.263 37.551 152.529 37.117C152.795 36.669 153.138 36.305 153.558 36.025C153.978 35.745 154.44 35.542 154.944 35.416C155.462 35.276 155.973 35.206 156.477 35.206C157.261 35.206 158.024 35.332 158.766 35.584C159.522 35.822 160.159 36.186 160.677 36.676L158.787 38.629ZM166.697 38.125V42.115C166.697 42.605 166.788 42.976 166.97 43.228C167.166 43.466 167.509 43.585 167.999 43.585C168.167 43.585 168.342 43.571 168.524 43.543C168.72 43.515 168.881 43.473 169.007 43.417L169.049 45.937C168.811 46.021 168.51 46.091 168.146 46.147C167.782 46.217 167.418 46.252 167.054 46.252C166.354 46.252 165.766 46.168 165.29 46C164.814 45.818 164.429 45.566 164.135 45.244C163.855 44.908 163.652 44.516 163.526 44.068C163.4 43.606 163.337 43.095 163.337 42.535V38.125H161.657V35.542H163.316V32.791H166.697V35.542H169.154V38.125H166.697ZM187.552 46L186.145 44.551C185.669 45.055 185.081 45.475 184.381 45.811C183.695 46.133 182.834 46.294 181.798 46.294C181.126 46.294 180.468 46.203 179.824 46.021C179.18 45.853 178.606 45.587 178.102 45.223C177.612 44.845 177.213 44.383 176.905 43.837C176.611 43.277 176.464 42.619 176.464 41.863C176.464 41.345 176.548 40.869 176.716 40.435C176.884 40.001 177.108 39.616 177.388 39.28C177.682 38.944 178.018 38.65 178.396 38.398C178.774 38.146 179.166 37.929 179.572 37.747C179.11 37.299 178.739 36.809 178.459 36.277C178.179 35.745 178.039 35.157 178.039 34.513C178.039 33.841 178.179 33.267 178.459 32.791C178.739 32.315 179.096 31.923 179.53 31.615C179.978 31.307 180.475 31.083 181.021 30.943C181.581 30.803 182.134 30.733 182.68 30.733C183.24 30.733 183.793 30.81 184.339 30.964C184.885 31.104 185.368 31.328 185.788 31.636C186.222 31.944 186.565 32.336 186.817 32.812C187.083 33.288 187.216 33.855 187.216 34.513C187.216 34.989 187.139 35.423 186.985 35.815C186.831 36.193 186.614 36.543 186.334 36.865C186.068 37.173 185.753 37.453 185.389 37.705C185.025 37.957 184.64 38.188 184.234 38.398L186.103 40.309L187.594 38.02H191.416L188.203 42.325L191.899 46H187.552ZM184.129 34.618C184.129 34.24 184.003 33.918 183.751 33.652C183.499 33.386 183.156 33.253 182.722 33.253C182.316 33.253 181.973 33.386 181.693 33.652C181.427 33.904 181.294 34.226 181.294 34.618C181.294 34.968 181.385 35.304 181.567 35.626C181.763 35.948 182.043 36.256 182.407 36.55C182.883 36.354 183.289 36.095 183.625 35.773C183.961 35.451 184.129 35.066 184.129 34.618ZM181.483 39.721C181.063 39.889 180.692 40.127 180.37 40.435C180.062 40.729 179.908 41.156 179.908 41.716C179.908 42.01 179.964 42.276 180.076 42.514C180.202 42.738 180.356 42.934 180.538 43.102C180.734 43.256 180.951 43.375 181.189 43.459C181.427 43.543 181.672 43.585 181.924 43.585C182.386 43.585 182.799 43.487 183.163 43.291C183.527 43.095 183.842 42.815 184.108 42.451L181.483 39.721ZM63.2691 62.198V74H59.6781V62.198H55.4781V59.132H67.4691V62.198H63.2691ZM74.2355 66.356C74.0815 66.314 73.9275 66.286 73.7735 66.272C73.6335 66.258 73.4935 66.251 73.3535 66.251C72.8915 66.251 72.4995 66.335 72.1775 66.503C71.8695 66.671 71.6175 66.874 71.4215 67.112C71.2395 67.35 71.1065 67.609 71.0225 67.889C70.9385 68.169 70.8965 68.414 70.8965 68.624V74H67.4525V63.542H70.7705V65.054H70.8125C71.0785 64.522 71.4565 64.088 71.9465 63.752C72.4365 63.416 73.0035 63.248 73.6475 63.248C73.7875 63.248 73.9205 63.255 74.0465 63.269C74.1865 63.283 74.2985 63.304 74.3825 63.332L74.2355 66.356ZM82.0446 69.443H81.6036C81.2256 69.443 80.8406 69.464 80.4486 69.506C80.0706 69.534 79.7276 69.597 79.4196 69.695C79.1256 69.793 78.8806 69.94 78.6846 70.136C78.4886 70.318 78.3906 70.563 78.3906 70.871C78.3906 71.067 78.4326 71.235 78.5166 71.375C78.6146 71.515 78.7336 71.627 78.8736 71.711C79.0136 71.795 79.1746 71.858 79.3566 71.9C79.5386 71.928 79.7136 71.942 79.8816 71.942C80.5816 71.942 81.1136 71.753 81.4776 71.375C81.8556 70.983 82.0446 70.458 82.0446 69.8V69.443ZM75.7236 64.97C76.3396 64.382 77.0536 63.941 77.8656 63.647C78.6916 63.353 79.5316 63.206 80.3856 63.206C81.2676 63.206 82.0096 63.318 82.6116 63.542C83.2276 63.752 83.7246 64.088 84.1026 64.55C84.4806 64.998 84.7536 65.572 84.9216 66.272C85.1036 66.958 85.1946 67.777 85.1946 68.729V74H82.0446V72.887H81.9816C81.7156 73.321 81.3096 73.657 80.7636 73.895C80.2316 74.133 79.6506 74.252 79.0206 74.252C78.6006 74.252 78.1666 74.196 77.7186 74.084C77.2706 73.972 76.8576 73.79 76.4796 73.538C76.1156 73.286 75.8146 72.95 75.5766 72.53C75.3386 72.11 75.2196 71.592 75.2196 70.976C75.2196 70.22 75.4226 69.611 75.8286 69.149C76.2486 68.687 76.7806 68.33 77.4246 68.078C78.0826 67.826 78.8106 67.658 79.6086 67.574C80.4066 67.49 81.1836 67.448 81.9396 67.448V67.28C81.9396 66.762 81.7576 66.384 81.3936 66.146C81.0296 65.894 80.5816 65.768 80.0496 65.768C79.5596 65.768 79.0836 65.873 78.6216 66.083C78.1736 66.293 77.7886 66.545 77.4666 66.839L75.7236 64.97ZM95.0521 74V68.288C95.0521 67.994 95.0241 67.714 94.9681 67.448C94.9261 67.182 94.8491 66.951 94.7371 66.755C94.6251 66.545 94.4641 66.384 94.2541 66.272C94.0581 66.146 93.8061 66.083 93.4981 66.083C93.1901 66.083 92.9171 66.146 92.6791 66.272C92.4551 66.384 92.2661 66.545 92.1121 66.755C91.9581 66.965 91.8391 67.21 91.7551 67.49C91.6851 67.756 91.6501 68.036 91.6501 68.33V74H88.1851V63.542H91.5241V64.991H91.5661C91.6921 64.767 91.8531 64.55 92.0491 64.34C92.2591 64.116 92.4971 63.927 92.7631 63.773C93.0431 63.619 93.3441 63.493 93.6661 63.395C93.9881 63.297 94.3311 63.248 94.6951 63.248C95.3951 63.248 95.9901 63.374 96.4801 63.626C96.9701 63.878 97.3621 64.207 97.6561 64.613C97.9641 65.005 98.1811 65.46 98.3071 65.978C98.4471 66.496 98.5171 67.014 98.5171 67.532V74H95.0521ZM107.699 66.629C107.419 66.363 107.09 66.139 106.712 65.957C106.334 65.775 105.935 65.684 105.515 65.684C105.193 65.684 104.892 65.747 104.612 65.873C104.346 65.999 104.213 66.216 104.213 66.524C104.213 66.818 104.36 67.028 104.654 67.154C104.962 67.28 105.452 67.42 106.124 67.574C106.516 67.658 106.908 67.777 107.3 67.931C107.706 68.085 108.07 68.288 108.392 68.54C108.714 68.792 108.973 69.1 109.169 69.464C109.365 69.828 109.463 70.262 109.463 70.766C109.463 71.424 109.33 71.984 109.064 72.446C108.798 72.894 108.448 73.258 108.014 73.538C107.594 73.818 107.118 74.021 106.586 74.147C106.054 74.273 105.522 74.336 104.99 74.336C104.136 74.336 103.296 74.203 102.47 73.937C101.658 73.657 100.979 73.251 100.433 72.719L102.365 70.682C102.673 71.018 103.051 71.298 103.499 71.522C103.947 71.746 104.423 71.858 104.927 71.858C105.207 71.858 105.48 71.795 105.746 71.669C106.026 71.529 106.166 71.291 106.166 70.955C106.166 70.633 105.998 70.395 105.662 70.241C105.326 70.087 104.801 69.926 104.087 69.758C103.723 69.674 103.359 69.562 102.995 69.422C102.631 69.282 102.302 69.093 102.008 68.855C101.728 68.617 101.497 68.323 101.315 67.973C101.133 67.623 101.042 67.203 101.042 66.713C101.042 66.083 101.175 65.551 101.441 65.117C101.707 64.669 102.05 64.305 102.47 64.025C102.89 63.745 103.352 63.542 103.856 63.416C104.374 63.276 104.885 63.206 105.389 63.206C106.173 63.206 106.936 63.332 107.678 63.584C108.434 63.822 109.071 64.186 109.589 64.676L107.699 66.629ZM123.505 68.729C123.505 69.457 123.393 70.157 123.169 70.829C122.945 71.501 122.616 72.096 122.182 72.614C121.762 73.118 121.244 73.524 120.628 73.832C120.012 74.14 119.312 74.294 118.528 74.294C117.884 74.294 117.275 74.168 116.701 73.916C116.127 73.65 115.679 73.293 115.357 72.845H115.315V79.04H111.871V63.542H115.147V64.823H115.21C115.532 64.403 115.973 64.039 116.533 63.731C117.107 63.409 117.779 63.248 118.549 63.248C119.305 63.248 119.991 63.395 120.607 63.689C121.223 63.983 121.741 64.382 122.161 64.886C122.595 65.39 122.924 65.978 123.148 66.65C123.386 67.308 123.505 68.001 123.505 68.729ZM120.166 68.729C120.166 68.393 120.11 68.064 119.998 67.742C119.9 67.42 119.746 67.14 119.536 66.902C119.34 66.65 119.088 66.447 118.78 66.293C118.472 66.139 118.115 66.062 117.709 66.062C117.317 66.062 116.967 66.139 116.659 66.293C116.351 66.447 116.085 66.65 115.861 66.902C115.651 67.154 115.483 67.441 115.357 67.763C115.245 68.085 115.189 68.414 115.189 68.75C115.189 69.086 115.245 69.415 115.357 69.737C115.483 70.059 115.651 70.346 115.861 70.598C116.085 70.85 116.351 71.053 116.659 71.207C116.967 71.361 117.317 71.438 117.709 71.438C118.115 71.438 118.472 71.361 118.78 71.207C119.088 71.053 119.34 70.85 119.536 70.598C119.746 70.346 119.9 70.059 119.998 69.737C120.11 69.401 120.166 69.065 120.166 68.729ZM132.267 69.443H131.826C131.448 69.443 131.063 69.464 130.671 69.506C130.293 69.534 129.95 69.597 129.642 69.695C129.348 69.793 129.103 69.94 128.907 70.136C128.711 70.318 128.613 70.563 128.613 70.871C128.613 71.067 128.655 71.235 128.739 71.375C128.837 71.515 128.956 71.627 129.096 71.711C129.236 71.795 129.397 71.858 129.579 71.9C129.761 71.928 129.936 71.942 130.104 71.942C130.804 71.942 131.336 71.753 131.7 71.375C132.078 70.983 132.267 70.458 132.267 69.8V69.443ZM125.946 64.97C126.562 64.382 127.276 63.941 128.088 63.647C128.914 63.353 129.754 63.206 130.608 63.206C131.49 63.206 132.232 63.318 132.834 63.542C133.45 63.752 133.947 64.088 134.325 64.55C134.703 64.998 134.976 65.572 135.144 66.272C135.326 66.958 135.417 67.777 135.417 68.729V74H132.267V72.887H132.204C131.938 73.321 131.532 73.657 130.986 73.895C130.454 74.133 129.873 74.252 129.243 74.252C128.823 74.252 128.389 74.196 127.941 74.084C127.493 73.972 127.08 73.79 126.702 73.538C126.338 73.286 126.037 72.95 125.799 72.53C125.561 72.11 125.442 71.592 125.442 70.976C125.442 70.22 125.645 69.611 126.051 69.149C126.471 68.687 127.003 68.33 127.647 68.078C128.305 67.826 129.033 67.658 129.831 67.574C130.629 67.49 131.406 67.448 132.162 67.448V67.28C132.162 66.762 131.98 66.384 131.616 66.146C131.252 65.894 130.804 65.768 130.272 65.768C129.782 65.768 129.306 65.873 128.844 66.083C128.396 66.293 128.011 66.545 127.689 66.839L125.946 64.97ZM145.19 66.356C145.036 66.314 144.882 66.286 144.728 66.272C144.588 66.258 144.448 66.251 144.308 66.251C143.846 66.251 143.454 66.335 143.132 66.503C142.824 66.671 142.572 66.874 142.376 67.112C142.194 67.35 142.061 67.609 141.977 67.889C141.893 68.169 141.851 68.414 141.851 68.624V74H138.407V63.542H141.725V65.054H141.767C142.033 64.522 142.411 64.088 142.901 63.752C143.391 63.416 143.958 63.248 144.602 63.248C144.742 63.248 144.875 63.255 145.001 63.269C145.141 63.283 145.253 63.304 145.337 63.332L145.19 66.356ZM153.987 67.574C153.987 67.028 153.812 66.559 153.462 66.167C153.126 65.775 152.615 65.579 151.929 65.579C151.593 65.579 151.285 65.635 151.005 65.747C150.725 65.845 150.48 65.985 150.27 66.167C150.06 66.349 149.892 66.566 149.766 66.818C149.64 67.056 149.57 67.308 149.556 67.574H153.987ZM157.158 68.897C157.158 69.037 157.158 69.177 157.158 69.317C157.158 69.457 157.151 69.59 157.137 69.716H149.556C149.584 70.01 149.668 70.276 149.808 70.514C149.962 70.752 150.151 70.962 150.375 71.144C150.613 71.312 150.872 71.445 151.152 71.543C151.446 71.641 151.747 71.69 152.055 71.69C152.601 71.69 153.063 71.592 153.441 71.396C153.819 71.186 154.127 70.92 154.365 70.598L156.759 72.11C156.269 72.824 155.618 73.377 154.806 73.769C154.008 74.147 153.077 74.336 152.013 74.336C151.229 74.336 150.487 74.217 149.787 73.979C149.087 73.727 148.471 73.37 147.939 72.908C147.421 72.432 147.008 71.851 146.7 71.165C146.406 70.479 146.259 69.695 146.259 68.813C146.259 67.959 146.406 67.189 146.7 66.503C146.994 65.803 147.393 65.215 147.897 64.739C148.401 64.249 148.996 63.871 149.682 63.605C150.368 63.339 151.11 63.206 151.908 63.206C152.678 63.206 153.385 63.339 154.029 63.605C154.673 63.857 155.226 64.228 155.688 64.718C156.15 65.208 156.507 65.803 156.759 66.503C157.025 67.203 157.158 68.001 157.158 68.897ZM166.581 74V68.288C166.581 67.994 166.553 67.714 166.497 67.448C166.455 67.182 166.378 66.951 166.266 66.755C166.154 66.545 165.993 66.384 165.783 66.272C165.587 66.146 165.335 66.083 165.027 66.083C164.719 66.083 164.446 66.146 164.208 66.272C163.984 66.384 163.795 66.545 163.641 66.755C163.487 66.965 163.368 67.21 163.284 67.49C163.214 67.756 163.179 68.036 163.179 68.33V74H159.714V63.542H163.053V64.991H163.095C163.221 64.767 163.382 64.55 163.578 64.34C163.788 64.116 164.026 63.927 164.292 63.773C164.572 63.619 164.873 63.493 165.195 63.395C165.517 63.297 165.86 63.248 166.224 63.248C166.924 63.248 167.519 63.374 168.009 63.626C168.499 63.878 168.891 64.207 169.185 64.613C169.493 65.005 169.71 65.46 169.836 65.978C169.976 66.496 170.046 67.014 170.046 67.532V74H166.581ZM180.277 66.923C180.081 66.671 179.815 66.468 179.479 66.314C179.143 66.16 178.8 66.083 178.45 66.083C178.086 66.083 177.757 66.16 177.463 66.314C177.169 66.454 176.917 66.65 176.707 66.902C176.497 67.14 176.329 67.42 176.203 67.742C176.091 68.064 176.035 68.407 176.035 68.771C176.035 69.135 176.091 69.478 176.203 69.8C176.315 70.122 176.476 70.409 176.686 70.661C176.91 70.899 177.169 71.088 177.463 71.228C177.771 71.368 178.114 71.438 178.492 71.438C178.842 71.438 179.185 71.375 179.521 71.249C179.871 71.109 180.151 70.913 180.361 70.661L182.272 72.992C181.838 73.412 181.278 73.741 180.592 73.979C179.906 74.217 179.178 74.336 178.408 74.336C177.582 74.336 176.812 74.21 176.098 73.958C175.384 73.706 174.761 73.342 174.229 72.866C173.711 72.376 173.298 71.788 172.99 71.102C172.696 70.416 172.549 69.639 172.549 68.771C172.549 67.917 172.696 67.147 172.99 66.461C173.298 65.775 173.711 65.194 174.229 64.718C174.761 64.228 175.384 63.857 176.098 63.605C176.812 63.339 177.575 63.206 178.387 63.206C178.765 63.206 179.136 63.241 179.5 63.311C179.878 63.381 180.235 63.479 180.571 63.605C180.921 63.717 181.236 63.864 181.516 64.046C181.81 64.214 182.062 64.403 182.272 64.613L180.277 66.923ZM189.957 75.575C189.747 76.121 189.509 76.604 189.243 77.024C188.991 77.458 188.683 77.822 188.319 78.116C187.969 78.424 187.549 78.655 187.059 78.809C186.583 78.963 186.016 79.04 185.358 79.04C185.036 79.04 184.7 79.019 184.35 78.977C184.014 78.935 183.72 78.879 183.468 78.809L183.846 75.911C184.014 75.967 184.196 76.009 184.392 76.037C184.602 76.079 184.791 76.1 184.959 76.1C185.491 76.1 185.876 75.974 186.114 75.722C186.352 75.484 186.555 75.141 186.723 74.693L187.059 73.832L182.691 63.542H186.513L188.844 70.262H188.907L190.986 63.542H194.64L189.957 75.575Z" fill="#F6851B"/>
<path d="M239.061 13.0607C239.646 12.4749 239.646 11.5251 239.061 10.9393L229.515 1.3934C228.929 0.807611 227.979 0.807611 227.393 1.3934C226.808 1.97919 226.808 2.92893 227.393 3.51472L235.879 12L227.393 20.4853C226.808 21.0711 226.808 22.0208 227.393 22.6066C227.979 23.1924 228.929 23.1924 229.515 22.6066L239.061 13.0607ZM0.939362 10.9393C0.353561 11.5251 0.353561 12.4749 0.939362 13.0607L10.4853 22.6066C11.0711 23.1924 12.0208 23.1924 12.6066 22.6066C13.1924 22.0208 13.1924 21.0711 12.6066 20.4853L4.12134 12L12.6066 3.51472C13.1924 2.92893 13.1924 1.97919 12.6066 1.3934C12.0208 0.807611 11.0711 0.807611 10.4853 1.3934L0.939362 10.9393ZM238 10.5L2.00002 10.5V13.5L238 13.5V10.5Z" fill="#F6851B"/>
</svg>
