<svg width="225" height="98" viewBox="0 0 225 98" fill="none" xmlns="http://www.w3.org/2000/svg">
<path d="M34.7369 42L33.5819 39.081H27.8279L26.7359 42H22.8299L29.0669 27.132H32.5529L38.7269 42H34.7369ZM30.7469 31.101L28.8569 36.204H32.5949L30.7469 31.101ZM51.8207 36.729C51.8207 37.457 51.7087 38.157 51.4847 38.829C51.2607 39.501 50.9317 40.096 50.4977 40.614C50.0777 41.118 49.5597 41.524 48.9437 41.832C48.3277 42.14 47.6277 42.294 46.8437 42.294C46.1997 42.294 45.5907 42.168 45.0167 41.916C44.4427 41.65 43.9947 41.293 43.6727 40.845H43.6307V47.04H40.1867V31.542H43.4627V32.823H43.5257C43.8477 32.403 44.2887 32.039 44.8487 31.731C45.4227 31.409 46.0947 31.248 46.8647 31.248C47.6207 31.248 48.3067 31.395 48.9227 31.689C49.5387 31.983 50.0567 32.382 50.4767 32.886C50.9107 33.39 51.2397 33.978 51.4637 34.65C51.7017 35.308 51.8207 36.001 51.8207 36.729ZM48.4817 36.729C48.4817 36.393 48.4257 36.064 48.3137 35.742C48.2157 35.42 48.0617 35.14 47.8517 34.902C47.6557 34.65 47.4037 34.447 47.0957 34.293C46.7877 34.139 46.4307 34.062 46.0247 34.062C45.6327 34.062 45.2827 34.139 44.9747 34.293C44.6667 34.447 44.4007 34.65 44.1767 34.902C43.9667 35.154 43.7987 35.441 43.6727 35.763C43.5607 36.085 43.5047 36.414 43.5047 36.75C43.5047 37.086 43.5607 37.415 43.6727 37.737C43.7987 38.059 43.9667 38.346 44.1767 38.598C44.4007 38.85 44.6667 39.053 44.9747 39.207C45.2827 39.361 45.6327 39.438 46.0247 39.438C46.4307 39.438 46.7877 39.361 47.0957 39.207C47.4037 39.053 47.6557 38.85 47.8517 38.598C48.0617 38.346 48.2157 38.059 48.3137 37.737C48.4257 37.401 48.4817 37.065 48.4817 36.729ZM66.0425 36.729C66.0425 37.457 65.9305 38.157 65.7065 38.829C65.4825 39.501 65.1535 40.096 64.7195 40.614C64.2995 41.118 63.7815 41.524 63.1655 41.832C62.5495 42.14 61.8495 42.294 61.0655 42.294C60.4215 42.294 59.8125 42.168 59.2385 41.916C58.6645 41.65 58.2165 41.293 57.8945 40.845H57.8525V47.04H54.4085V31.542H57.6845V32.823H57.7475C58.0695 32.403 58.5105 32.039 59.0705 31.731C59.6445 31.409 60.3165 31.248 61.0865 31.248C61.8425 31.248 62.5285 31.395 63.1445 31.689C63.7605 31.983 64.2785 32.382 64.6985 32.886C65.1325 33.39 65.4615 33.978 65.6855 34.65C65.9235 35.308 66.0425 36.001 66.0425 36.729ZM62.7035 36.729C62.7035 36.393 62.6475 36.064 62.5355 35.742C62.4375 35.42 62.2835 35.14 62.0735 34.902C61.8775 34.65 61.6255 34.447 61.3175 34.293C61.0095 34.139 60.6525 34.062 60.2465 34.062C59.8545 34.062 59.5045 34.139 59.1965 34.293C58.8885 34.447 58.6225 34.65 58.3985 34.902C58.1885 35.154 58.0205 35.441 57.8945 35.763C57.7825 36.085 57.7265 36.414 57.7265 36.75C57.7265 37.086 57.7825 37.415 57.8945 37.737C58.0205 38.059 58.1885 38.346 58.3985 38.598C58.6225 38.85 58.8885 39.053 59.1965 39.207C59.5045 39.361 59.8545 39.438 60.2465 39.438C60.6525 39.438 61.0095 39.361 61.3175 39.207C61.6255 39.053 61.8775 38.85 62.0735 38.598C62.2835 38.346 62.4375 38.059 62.5355 37.737C62.6475 37.401 62.7035 37.065 62.7035 36.729ZM68.6722 42V26.124H72.1582V42H68.6722ZM81.2061 43.575C80.9961 44.121 80.7581 44.604 80.4921 45.024C80.2401 45.458 79.9321 45.822 79.5681 46.116C79.2181 46.424 78.7981 46.655 78.3081 46.809C77.8321 46.963 77.2651 47.04 76.6071 47.04C76.2851 47.04 75.9491 47.019 75.5991 46.977C75.2631 46.935 74.9691 46.879 74.7171 46.809L75.0951 43.911C75.2631 43.967 75.4451 44.009 75.6411 44.037C75.8511 44.079 76.0401 44.1 76.2081 44.1C76.7401 44.1 77.1251 43.974 77.3631 43.722C77.6011 43.484 77.8041 43.141 77.9721 42.693L78.3081 41.832L73.9401 31.542H77.7621L80.0931 38.262H80.1561L82.2351 31.542H85.8891L81.2061 43.575Z" fill="#F6851B"/>
<path d="M0 90C0 94.4183 3.58172 98 8 98C12.4183 98 16 94.4183 16 90C16 85.5817 12.4183 82 8 82C3.58172 82 0 85.5817 0 90ZM8 12V10.5H6.5V12H8ZM224.061 13.0607C224.646 12.4749 224.646 11.5251 224.061 10.9393L214.515 1.3934C213.929 0.807612 212.979 0.807612 212.393 1.3934C211.808 1.97918 211.808 2.92893 212.393 3.51472L220.879 12L212.393 20.4853C211.808 21.0711 211.808 22.0208 212.393 22.6066C212.979 23.1924 213.929 23.1924 214.515 22.6066L224.061 13.0607ZM9.5 90V12H6.5V90H9.5ZM8 13.5H223V10.5H8V13.5Z" fill="#F6851B"/>
</svg>
