<svg width="225" height="98" viewBox="0 0 225 98" fill="none" xmlns="http://www.w3.org/2000/svg">
<path d="M166.993 30.71C166.993 31.578 166.832 32.313 166.51 32.915C166.188 33.503 165.754 33.979 165.208 34.343C164.662 34.707 164.032 34.973 163.318 35.141C162.604 35.309 161.862 35.393 161.092 35.393H159.307V41H155.716V26.132H161.176C161.988 26.132 162.744 26.216 163.444 26.384C164.158 26.538 164.774 26.797 165.292 27.161C165.824 27.511 166.237 27.98 166.531 28.568C166.839 29.142 166.993 29.856 166.993 30.71ZM163.402 30.731C163.402 30.381 163.332 30.094 163.192 29.87C163.052 29.646 162.863 29.471 162.625 29.345C162.387 29.219 162.114 29.135 161.806 29.093C161.512 29.051 161.204 29.03 160.882 29.03H159.307V32.537H160.819C161.155 32.537 161.477 32.509 161.785 32.453C162.093 32.397 162.366 32.299 162.604 32.159C162.856 32.019 163.052 31.837 163.192 31.613C163.332 31.375 163.402 31.081 163.402 30.731ZM179.422 35.729C179.422 36.583 179.268 37.36 178.96 38.06C178.652 38.746 178.232 39.334 177.7 39.824C177.168 40.3 176.552 40.671 175.852 40.937C175.152 41.203 174.403 41.336 173.605 41.336C172.821 41.336 172.072 41.203 171.358 40.937C170.658 40.671 170.042 40.3 169.51 39.824C168.992 39.334 168.579 38.746 168.271 38.06C167.963 37.36 167.809 36.583 167.809 35.729C167.809 34.875 167.963 34.105 168.271 33.419C168.579 32.733 168.992 32.152 169.51 31.676C170.042 31.2 170.658 30.836 171.358 30.584C172.072 30.332 172.821 30.206 173.605 30.206C174.403 30.206 175.152 30.332 175.852 30.584C176.552 30.836 177.168 31.2 177.7 31.676C178.232 32.152 178.652 32.733 178.96 33.419C179.268 34.105 179.422 34.875 179.422 35.729ZM176.104 35.729C176.104 35.393 176.048 35.064 175.936 34.742C175.824 34.42 175.663 34.14 175.453 33.902C175.243 33.65 174.984 33.447 174.676 33.293C174.368 33.139 174.011 33.062 173.605 33.062C173.199 33.062 172.842 33.139 172.534 33.293C172.226 33.447 171.967 33.65 171.757 33.902C171.561 34.14 171.407 34.42 171.295 34.742C171.197 35.064 171.148 35.393 171.148 35.729C171.148 36.065 171.197 36.394 171.295 36.716C171.407 37.038 171.568 37.332 171.778 37.598C171.988 37.85 172.247 38.053 172.555 38.207C172.863 38.361 173.22 38.438 173.626 38.438C174.032 38.438 174.389 38.361 174.697 38.207C175.005 38.053 175.264 37.85 175.474 37.598C175.684 37.332 175.838 37.038 175.936 36.716C176.048 36.394 176.104 36.065 176.104 35.729ZM188.175 33.629C187.895 33.363 187.566 33.139 187.188 32.957C186.81 32.775 186.411 32.684 185.991 32.684C185.669 32.684 185.368 32.747 185.088 32.873C184.822 32.999 184.689 33.216 184.689 33.524C184.689 33.818 184.836 34.028 185.13 34.154C185.438 34.28 185.928 34.42 186.6 34.574C186.992 34.658 187.384 34.777 187.776 34.931C188.182 35.085 188.546 35.288 188.868 35.54C189.19 35.792 189.449 36.1 189.645 36.464C189.841 36.828 189.939 37.262 189.939 37.766C189.939 38.424 189.806 38.984 189.54 39.446C189.274 39.894 188.924 40.258 188.49 40.538C188.07 40.818 187.594 41.021 187.062 41.147C186.53 41.273 185.998 41.336 185.466 41.336C184.612 41.336 183.772 41.203 182.946 40.937C182.134 40.657 181.455 40.251 180.909 39.719L182.841 37.682C183.149 38.018 183.527 38.298 183.975 38.522C184.423 38.746 184.899 38.858 185.403 38.858C185.683 38.858 185.956 38.795 186.222 38.669C186.502 38.529 186.642 38.291 186.642 37.955C186.642 37.633 186.474 37.395 186.138 37.241C185.802 37.087 185.277 36.926 184.563 36.758C184.199 36.674 183.835 36.562 183.471 36.422C183.107 36.282 182.778 36.093 182.484 35.855C182.204 35.617 181.973 35.323 181.791 34.973C181.609 34.623 181.518 34.203 181.518 33.713C181.518 33.083 181.651 32.551 181.917 32.117C182.183 31.669 182.526 31.305 182.946 31.025C183.366 30.745 183.828 30.542 184.332 30.416C184.85 30.276 185.361 30.206 185.865 30.206C186.649 30.206 187.412 30.332 188.154 30.584C188.91 30.822 189.547 31.186 190.065 31.676L188.175 33.629ZM196.086 33.125V37.115C196.086 37.605 196.177 37.976 196.359 38.228C196.555 38.466 196.898 38.585 197.388 38.585C197.556 38.585 197.731 38.571 197.913 38.543C198.109 38.515 198.27 38.473 198.396 38.417L198.438 40.937C198.2 41.021 197.899 41.091 197.535 41.147C197.171 41.217 196.807 41.252 196.443 41.252C195.743 41.252 195.155 41.168 194.679 41C194.203 40.818 193.818 40.566 193.524 40.244C193.244 39.908 193.041 39.516 192.915 39.068C192.789 38.606 192.726 38.095 192.726 37.535V33.125H191.046V30.542H192.705V27.791H196.086V30.542H198.543V33.125H196.086Z" fill="#F6851B"/>
<path d="M225 90C225 94.4183 221.418 98 217 98C212.582 98 209 94.4183 209 90C209 85.5817 212.582 82 217 82C221.418 82 225 85.5817 225 90ZM217 12V10.5H218.5V12H217ZM0.939346 13.0607C0.353546 12.4749 0.353546 11.5251 0.939346 10.9393L10.4853 1.3934C11.0711 0.807611 12.0208 0.807611 12.6066 1.3934C13.1924 1.97919 13.1924 2.92893 12.6066 3.51472L4.12132 12L12.6066 20.4853C13.1924 21.0711 13.1924 22.0208 12.6066 22.6066C12.0208 23.1924 11.0711 23.1924 10.4853 22.6066L0.939346 13.0607ZM215.5 90V12H218.5V90H215.5ZM217 13.5H2V10.5H217V13.5Z" fill="#F6851B"/>
</svg>
