<svg width="248" height="55" viewBox="0 0 248 55" fill="none" xmlns="http://www.w3.org/2000/svg">
<path d="M106.572 35.996C106.264 35.604 105.858 35.296 105.354 35.072C104.864 34.834 104.388 34.715 103.926 34.715C103.688 34.715 103.443 34.736 103.191 34.778C102.953 34.82 102.736 34.904 102.54 35.03C102.344 35.142 102.176 35.296 102.036 35.492C101.91 35.674 101.847 35.912 101.847 36.206C101.847 36.458 101.896 36.668 101.994 36.836C102.106 37.004 102.26 37.151 102.456 37.277C102.666 37.403 102.911 37.522 103.191 37.634C103.471 37.732 103.786 37.837 104.136 37.949C104.64 38.117 105.165 38.306 105.711 38.516C106.257 38.712 106.754 38.978 107.202 39.314C107.65 39.65 108.021 40.07 108.315 40.574C108.609 41.064 108.756 41.68 108.756 42.422C108.756 43.276 108.595 44.018 108.273 44.648C107.965 45.264 107.545 45.775 107.013 46.181C106.481 46.587 105.872 46.888 105.186 47.084C104.5 47.28 103.793 47.378 103.065 47.378C102.001 47.378 100.972 47.196 99.9779 46.832C98.9839 46.454 98.1579 45.922 97.4999 45.236L99.8519 42.842C100.216 43.29 100.692 43.668 101.28 43.976C101.882 44.27 102.477 44.417 103.065 44.417C103.331 44.417 103.59 44.389 103.842 44.333C104.094 44.277 104.311 44.186 104.493 44.06C104.689 43.934 104.843 43.766 104.955 43.556C105.067 43.346 105.123 43.094 105.123 42.8C105.123 42.52 105.053 42.282 104.913 42.086C104.773 41.89 104.57 41.715 104.304 41.561C104.052 41.393 103.73 41.246 103.338 41.12C102.96 40.98 102.526 40.833 102.036 40.679C101.56 40.525 101.091 40.343 100.629 40.133C100.181 39.923 99.7749 39.657 99.4109 39.335C99.0609 38.999 98.7739 38.6 98.5499 38.138C98.3399 37.662 98.2349 37.088 98.2349 36.416C98.2349 35.59 98.4029 34.883 98.7389 34.295C99.0749 33.707 99.5159 33.224 100.062 32.846C100.608 32.468 101.224 32.195 101.91 32.027C102.596 31.845 103.289 31.754 103.989 31.754C104.829 31.754 105.683 31.908 106.551 32.216C107.433 32.524 108.203 32.979 108.861 33.581L106.572 35.996ZM118.559 39.923C118.363 39.671 118.097 39.468 117.761 39.314C117.425 39.16 117.082 39.083 116.732 39.083C116.368 39.083 116.039 39.16 115.745 39.314C115.451 39.454 115.199 39.65 114.989 39.902C114.779 40.14 114.611 40.42 114.485 40.742C114.373 41.064 114.317 41.407 114.317 41.771C114.317 42.135 114.373 42.478 114.485 42.8C114.597 43.122 114.758 43.409 114.968 43.661C115.192 43.899 115.451 44.088 115.745 44.228C116.053 44.368 116.396 44.438 116.774 44.438C117.124 44.438 117.467 44.375 117.803 44.249C118.153 44.109 118.433 43.913 118.643 43.661L120.554 45.992C120.12 46.412 119.56 46.741 118.874 46.979C118.188 47.217 117.46 47.336 116.69 47.336C115.864 47.336 115.094 47.21 114.38 46.958C113.666 46.706 113.043 46.342 112.511 45.866C111.993 45.376 111.58 44.788 111.272 44.102C110.978 43.416 110.831 42.639 110.831 41.771C110.831 40.917 110.978 40.147 111.272 39.461C111.58 38.775 111.993 38.194 112.511 37.718C113.043 37.228 113.666 36.857 114.38 36.605C115.094 36.339 115.857 36.206 116.669 36.206C117.047 36.206 117.418 36.241 117.782 36.311C118.16 36.381 118.517 36.479 118.853 36.605C119.203 36.717 119.518 36.864 119.798 37.046C120.092 37.214 120.344 37.403 120.554 37.613L118.559 39.923ZM133.426 41.729C133.426 42.583 133.272 43.36 132.964 44.06C132.656 44.746 132.236 45.334 131.704 45.824C131.172 46.3 130.556 46.671 129.856 46.937C129.156 47.203 128.407 47.336 127.609 47.336C126.825 47.336 126.076 47.203 125.362 46.937C124.662 46.671 124.046 46.3 123.514 45.824C122.996 45.334 122.583 44.746 122.275 44.06C121.967 43.36 121.813 42.583 121.813 41.729C121.813 40.875 121.967 40.105 122.275 39.419C122.583 38.733 122.996 38.152 123.514 37.676C124.046 37.2 124.662 36.836 125.362 36.584C126.076 36.332 126.825 36.206 127.609 36.206C128.407 36.206 129.156 36.332 129.856 36.584C130.556 36.836 131.172 37.2 131.704 37.676C132.236 38.152 132.656 38.733 132.964 39.419C133.272 40.105 133.426 40.875 133.426 41.729ZM130.108 41.729C130.108 41.393 130.052 41.064 129.94 40.742C129.828 40.42 129.667 40.14 129.457 39.902C129.247 39.65 128.988 39.447 128.68 39.293C128.372 39.139 128.015 39.062 127.609 39.062C127.203 39.062 126.846 39.139 126.538 39.293C126.23 39.447 125.971 39.65 125.761 39.902C125.565 40.14 125.411 40.42 125.299 40.742C125.201 41.064 125.152 41.393 125.152 41.729C125.152 42.065 125.201 42.394 125.299 42.716C125.411 43.038 125.572 43.332 125.782 43.598C125.992 43.85 126.251 44.053 126.559 44.207C126.867 44.361 127.224 44.438 127.63 44.438C128.036 44.438 128.393 44.361 128.701 44.207C129.009 44.053 129.268 43.85 129.478 43.598C129.688 43.332 129.842 43.038 129.94 42.716C130.052 42.394 130.108 42.065 130.108 41.729ZM142.914 47V45.551H142.872C142.746 45.789 142.578 46.013 142.368 46.223C142.172 46.433 141.934 46.615 141.654 46.769C141.388 46.923 141.087 47.049 140.751 47.147C140.429 47.245 140.086 47.294 139.722 47.294C139.022 47.294 138.427 47.168 137.937 46.916C137.461 46.664 137.069 46.342 136.761 45.95C136.467 45.544 136.25 45.089 136.11 44.585C135.984 44.067 135.921 43.542 135.921 43.01V36.542H139.386V42.212C139.386 42.506 139.407 42.786 139.449 43.052C139.491 43.318 139.568 43.556 139.68 43.766C139.806 43.976 139.967 44.144 140.163 44.27C140.359 44.382 140.618 44.438 140.94 44.438C141.542 44.438 141.997 44.214 142.305 43.766C142.627 43.318 142.788 42.793 142.788 42.191V36.542H146.232V47H142.914ZM153.084 39.125V43.115C153.084 43.605 153.175 43.976 153.357 44.228C153.553 44.466 153.896 44.585 154.386 44.585C154.554 44.585 154.729 44.571 154.911 44.543C155.107 44.515 155.268 44.473 155.394 44.417L155.436 46.937C155.198 47.021 154.897 47.091 154.533 47.147C154.169 47.217 153.805 47.252 153.441 47.252C152.741 47.252 152.153 47.168 151.677 47C151.201 46.818 150.816 46.566 150.522 46.244C150.242 45.908 150.039 45.516 149.913 45.068C149.787 44.606 149.724 44.095 149.724 43.535V39.125H148.044V36.542H149.703V33.791H153.084V36.542H155.541V39.125H153.084Z" fill="#F6851B"/>
<path d="M248 12C248 7.58172 244.418 4 240 4C235.582 4 232 7.58172 232 12C232 16.4183 235.582 20 240 20C244.418 20 248 16.4183 248 12ZM0.939331 10.9393C0.353531 11.5251 0.353531 12.4749 0.939331 13.0607L10.4853 22.6066C11.0711 23.1924 12.0208 23.1924 12.6066 22.6066C13.1924 22.0208 13.1924 21.0711 12.6066 20.4853L4.12131 12L12.6066 3.51472C13.1924 2.92893 13.1924 1.97919 12.6066 1.3934C12.0208 0.807611 11.0711 0.807611 10.4853 1.3934L0.939331 10.9393ZM240 10.5L1.99998 10.5V13.5L240 13.5V10.5Z" fill="#F6851B"/>
</svg>
